<?xml version="1.0" encoding="UTF-8"?>
<svg id="_레이어_1" xmlns="http://www.w3.org/2000/svg" version="1.1" viewBox="0 0 1174.06 966.19">
  <!-- Generator: Adobe Illustrator 29.0.1, SVG Export Plug-In . SVG Version: 2.1.0 Build 192)  -->
  <defs>
    <style>
      .st0 {
        fill: #949391;
      }

      .st0, .st1, .st2 {
        stroke-width: .3px;
      }

      .st0, .st1, .st2, .st3 {
        stroke: #1a1613;
        stroke-linejoin: round;
      }

      .st4 {
        fill: #392109;
      }

      .st5 {
        fill: #cce8fe;
      }

      .st5, .st6, .st7, .st8, .st9, .st10, .st11, .st12, .st13, .st14, .st15 {
        stroke-miterlimit: 10;
      }

      .st5, .st6, .st9 {
        stroke-width: .5px;
      }

      .st5, .st9 {
        stroke: #141414;
      }

      .st16 {
        fill: #5d646a;
      }

      .st17 {
        fill: #af7700;
      }

      .st6, .st8 {
        fill: #757b87;
        stroke: #1e1e1e;
      }

      .st18 {
        fill: #9e4c03;
      }

      .st19, .st11, .st13 {
        fill: #a8abb3;
      }

      .st20 {
        fill: #bc9611;
      }

      .st21 {
        fill: #fff;
      }

      .st7 {
        fill: #4e4e4e;
        stroke-width: .2px;
      }

      .st7, .st11, .st13, .st14 {
        stroke: #000;
      }

      .st8 {
        stroke-width: .8px;
      }

      .st22 {
        fill: #83410d;
      }

      .st23 {
        fill: #fdbf46;
      }

      .st24, .st10, .st2, .st3, .st15 {
        fill: none;
      }

      .st25 {
        fill: #804316;
      }

      .st26 {
        fill: #cad5dd;
      }

      .st9 {
        fill: #514a97;
      }

      .st27 {
        fill: #58300d;
      }

      .st28 {
        isolation: isolate;
      }

      .st10, .st12 {
        stroke: #201035;
      }

      .st29 {
        fill: #201929;
      }

      .st11 {
        stroke-width: .4px;
      }

      .st30 {
        fill: #efefef;
      }

      .st31 {
        fill: #fffefd;
      }

      .st12, .st32 {
        fill: #201035;
      }

      .st33 {
        fill: #6b6b69;
      }

      .st13, .st14 {
        stroke-width: .6px;
      }

      .st1 {
        fill: #d2d2d2;
      }

      .st3 {
        stroke-width: 9px;
      }

      .st3, .st15 {
        stroke-linecap: round;
      }

      .st14 {
        fill: #f5f5f7;
      }

      .st34 {
        fill: #1e1a17;
      }

      .st15 {
        stroke: #2d2d2d;
      }

      .st35 {
        fill: #d1d1d1;
      }

      .st36 {
        fill: #161616;
      }
    </style>
  </defs>
  <g>
    <polygon class="st0" points="877.93 435.31 920.44 411.1 920.44 405.04 872.64 432.28 877.93 435.31"/>
    <polygon class="st0" points="884.24 438.84 890.17 442.12 932.17 418.29 932.17 411.6 884.24 438.84"/>
    <polygon class="st0" points="896.47 445.78 902.28 449.06 944.27 425.22 944.27 418.54 896.47 445.78"/>
    <polygon class="st0" points="908.71 452.72 914.51 456 956.51 432.03 956.51 425.47 908.71 452.72"/>
    <polygon class="st0" points="920.94 459.53 926.74 462.81 968.74 438.97 968.74 432.28 920.94 459.53"/>
    <polygon class="st0" points="933.05 466.46 938.85 469.74 980.85 445.78 980.85 439.22 933.05 466.46"/>
    <polygon class="st0" points="945.28 473.27 951.08 476.68 993.08 452.72 993.08 446.16 945.28 473.27"/>
    <polygon class="st0" points="957.52 480.21 963.32 483.49 1005.32 459.65 1005.32 452.97 957.52 480.21"/>
    <polygon class="st0" points="969.62 487.15 975.43 490.43 1017.42 466.59 1017.42 459.9 969.62 487.15"/>
    <polygon class="st0" points="981.86 493.96 987.66 497.36 1029.66 473.4 1029.66 466.84 981.86 493.96"/>
    <polygon class="st0" points="993.96 500.89 999.89 504.17 1041.76 480.34 1041.89 473.65 993.96 500.89"/>
    <polygon class="st0" points="1006.2 507.83 1012 511.11 1054 487.27 1054 480.59 1006.2 507.83"/>
    <polygon class="st0" points="1018.43 514.64 1024.23 518.05 1066.23 494.08 1066.23 487.53 1018.43 514.64"/>
    <polygon class="st0" points="1030.54 521.58 1036.47 524.86 1078.34 501.02 1078.47 494.34 1030.54 521.58"/>
    <polygon class="st0" points="1042.77 528.51 1048.7 531.79 1090.57 507.96 1090.57 501.27 1042.77 528.51"/>
    <polygon class="st0" points="1080.36 549.7 982.11 605.7 838.58 687.43 598.96 551.97 598.7 644.42 838.21 779.87 981.86 698.15 1080.1 642.27 1128.03 615.03 1128.28 522.59 1080.36 549.7"/>
    <polygon class="st1" points="982.11 605.7 1080.36 549.7 1128.28 522.59 1096.5 504.55 1090.57 507.96 1048.7 531.79 1042.77 528.51 1090.57 501.27 1084.27 497.74 1078.34 501.02 1036.47 524.86 1030.54 521.58 1078.47 494.34 1072.03 490.8 1066.23 494.08 1024.23 518.05 1018.43 514.64 1066.23 487.53 1059.93 483.87 1054 487.27 1012 511.11 1006.2 507.83 1054 480.59 1047.69 477.06 1041.76 480.34 999.89 504.17 993.96 500.89 1041.89 473.65 1035.46 470.12 1029.66 473.4 987.66 497.36 981.86 493.96 1029.66 466.84 1023.35 463.18 1017.42 466.59 975.43 490.43 969.62 487.15 1017.42 459.9 1011.12 456.25 1005.32 459.65 963.32 483.49 957.52 480.21 1005.32 452.97 998.88 449.44 993.08 452.72 951.08 476.68 945.28 473.27 993.08 446.16 986.78 442.5 980.85 445.78 938.85 469.74 933.05 466.46 980.85 439.22 974.54 435.56 968.74 438.97 926.74 462.81 920.94 459.53 968.74 432.28 962.31 428.75 956.51 432.03 914.51 456 908.71 452.72 956.51 425.47 950.2 421.82 944.27 425.22 902.28 449.06 896.47 445.78 944.27 418.54 937.97 415.01 932.17 418.29 890.17 442.12 884.24 438.84 932.17 411.6 925.73 408.07 920.44 411.1 877.93 435.31 872.64 432.28 920.44 405.04 888.65 387.13 840.85 414.25 742.61 470.25 598.96 551.97 838.58 687.43 982.11 605.7"/>
  </g>
  <polygon class="st19" points="1037.73 561.31 948.56 613.14 715.11 478.32 804.28 426.48 1037.73 561.31"/>
  <polygon class="st34" points="948.56 621.09 948.56 613.14 1037.73 561.31 1037.73 569.25 948.56 621.09"/>
  <polygon class="st33" points="715.11 486.39 715.11 478.32 948.56 613.14 948.56 621.09 715.11 486.39"/>
  <polygon class="st36" points="981.98 543.65 923.97 577.32 772.37 489.67 830.26 456.12 981.98 543.65"/>
  <g>
    <polygon class="st24" points="608.67 124.3 615.48 115.98 615.48 115.98 608.67 124.3"/>
    <polygon class="st24" points="790.03 174.24 799.36 168.82 799.36 168.82 799.36 158.1 799.36 147.25 799.36 136.41 799.36 136.41 799.36 125.56 790.03 130.98 780.7 136.41 780.7 136.41 771.24 141.83 761.9 136.41 752.57 141.83 752.57 152.68 752.57 152.68 761.9 158.1 761.9 168.82 761.9 168.82 771.24 174.24 771.24 185.09 771.24 185.09 780.7 190.51 780.7 179.67 790.03 174.24"/>
    <rect class="st24" x="649.53" y="179.67" height="10.85"/>
    <polygon class="st24" points="600.09 108.66 605.26 99.2 605.26 99.2 600.09 108.66"/>
    <polygon class="st24" points="628.22 157.34 633.26 147.88 633.26 147.88 628.22 157.34"/>
    <polygon class="st32" points="818.15 298.6 818.15 298.6 808.69 293.17 808.69 304.02 808.69 314.87 818.15 320.29 818.15 309.44 818.15 298.6"/>
    <polygon class="st32" points="893.07 266.18 893.07 266.18 893.07 255.34 883.74 249.91 883.74 249.91 883.74 260.76 893.07 266.18"/>
    <polygon class="st17" points="1127.15 260.76 1127.15 271.61 1136.61 266.18 1136.61 266.18 1145.94 260.76 1145.94 249.91 1136.61 255.34 1127.15 260.76"/>
    <polygon class="st32" points="902.4 260.76 911.73 266.18 911.73 255.34 902.4 249.91 902.4 260.76"/>
    <polygon class="st17" points="1145.94 293.17 1145.94 304.02 1155.27 309.44 1164.73 304.02 1164.73 293.17 1164.73 282.45 1155.27 287.88 1145.94 293.17"/>
    <polygon class="st21" points="827.49 195.94 836.82 201.36 836.82 190.51 846.15 195.94 846.15 185.09 836.82 179.67 836.82 168.82 836.82 168.82 836.82 158.1 846.15 163.4 846.15 152.68 846.15 141.83 836.82 136.41 836.82 136.41 836.82 136.41 827.49 130.98 827.49 141.83 818.15 136.41 818.15 136.41 818.15 147.25 818.15 158.1 818.15 168.82 818.15 168.82 818.15 179.67 827.49 185.09 827.49 195.94"/>
    <polygon class="st35" points="790.03 174.24 780.7 179.67 790.03 185.09 799.36 190.51 799.36 179.67 799.36 168.82 790.03 174.24"/>
    <polygon class="st32" points="883.74 293.17 874.28 287.88 874.28 277.03 864.94 271.61 864.94 260.76 855.61 255.34 846.15 249.91 846.15 260.76 836.82 255.34 836.82 266.18 827.49 260.76 818.15 255.34 808.69 249.91 808.69 260.76 818.15 266.18 818.15 266.18 818.15 277.03 818.15 287.88 827.49 293.17 827.49 304.02 836.82 309.44 836.82 298.6 836.82 298.6 846.15 304.02 855.61 309.44 864.94 314.87 864.94 314.87 874.28 320.29 874.28 331.14 883.74 336.43 883.74 325.71 893.07 331.14 893.07 320.29 893.07 309.44 902.4 314.87 902.4 304.02 893.07 298.6 883.74 293.17"/>
    <polygon class="st25" points="799.36 136.41 799.36 147.25 799.36 158.1 799.36 168.82 799.36 168.82 799.36 179.67 808.69 185.09 818.15 190.51 818.15 179.67 808.69 174.24 808.69 163.4 808.69 152.68 808.69 141.83 808.69 130.98 799.36 125.56 799.36 136.41 799.36 136.41"/>
    <polygon class="st18" points="836.82 93.15 827.49 98.57 836.82 103.99 836.82 103.99 846.15 109.29 846.15 120.14 855.61 125.56 864.94 130.98 864.94 120.14 864.94 120.14 874.28 125.56 883.74 130.98 883.74 141.83 893.07 136.41 893.07 136.41 902.4 130.98 911.73 125.56 911.73 114.71 902.4 109.29 902.4 98.57 893.07 103.99 883.74 109.29 874.28 103.99 864.94 98.57 864.94 87.72 855.61 82.3 846.15 87.72 836.82 93.15"/>
    <polygon class="st32" points="893.07 352.7 893.07 363.55 902.4 368.97 902.4 358.13 902.4 347.28 893.07 341.86 893.07 352.7"/>
    <polygon class="st22" points="724.45 233.77 724.45 222.92 724.45 212.08 724.45 201.36 724.45 201.36 724.45 190.51 715.11 185.09 715.11 174.24 705.65 168.82 705.65 168.82 705.65 168.82 705.65 158.1 696.32 152.68 686.99 147.25 686.99 158.1 686.99 168.82 686.99 168.82 686.99 168.82 696.32 174.24 686.99 179.67 677.66 185.09 668.2 190.51 658.86 195.94 658.86 195.94 649.53 190.51 649.53 190.51 640.2 185.09 640.2 195.94 640.2 206.66 649.53 212.08 658.86 206.66 658.86 206.66 668.2 212.08 677.66 206.66 686.99 201.36 686.99 201.36 696.32 206.66 705.65 212.08 705.65 222.92 705.65 233.77 705.65 233.77 705.65 233.77 715.11 239.19 724.45 244.49 724.45 233.77 724.45 233.77"/>
    <polygon class="st31" points="1042.9 331.14 1042.9 320.29 1042.9 309.44 1042.9 298.6 1042.9 298.6 1042.9 287.88 1052.23 282.45 1061.69 277.03 1061.69 266.18 1061.69 266.18 1052.23 260.76 1052.23 271.61 1042.9 266.18 1042.9 266.18 1042.9 277.03 1033.57 282.45 1033.57 293.17 1033.57 304.02 1033.57 314.87 1033.57 325.71 1033.57 336.43 1042.9 341.86 1042.9 331.14"/>
    <polygon class="st32" points="836.82 168.82 836.82 168.82 836.82 179.67 846.15 185.09 846.15 174.24 846.15 163.4 836.82 158.1 836.82 168.82"/>
    <polygon class="st32" points="883.74 368.97 893.07 374.4 893.07 363.55 883.74 358.13 883.74 368.97"/>
    <polygon class="st18" points="930.53 298.6 930.53 298.6 921.19 304.02 911.73 298.6 911.73 298.6 911.73 309.44 921.19 314.87 930.53 309.44 939.86 314.87 949.19 320.29 958.65 325.71 967.98 320.29 977.32 325.71 977.32 314.87 977.32 314.87 986.78 320.29 996.11 314.87 996.11 314.87 1005.44 320.29 1014.77 314.87 1014.77 314.87 1024.23 320.29 1024.23 309.44 1024.23 298.6 1014.77 304.02 1005.44 298.6 996.11 304.02 986.78 298.6 977.32 293.17 967.98 298.6 958.65 293.17 949.19 287.88 939.86 293.17 930.53 298.6"/>
    <polygon class="st20" points="1080.36 233.77 1071.02 239.19 1080.36 244.49 1080.36 233.77"/>
    <polygon class="st23" points="1155.27 341.86 1155.27 331.14 1155.27 320.29 1155.27 309.44 1145.94 304.02 1145.94 293.17 1136.61 287.88 1136.61 277.03 1127.15 271.61 1127.15 260.76 1117.81 255.34 1108.48 249.91 1108.48 249.91 1099.15 244.49 1089.69 239.19 1080.36 244.49 1071.02 239.19 1061.69 244.49 1052.23 249.91 1042.9 255.34 1033.57 260.76 1033.57 271.61 1024.23 277.03 1024.23 287.88 1024.23 298.6 1024.23 298.6 1024.23 309.44 1024.23 320.29 1024.23 331.14 1033.57 336.43 1033.57 325.71 1033.57 314.87 1033.57 304.02 1033.57 293.17 1033.57 282.45 1042.9 277.03 1042.9 266.18 1042.9 266.18 1052.23 271.61 1052.23 260.76 1061.69 266.18 1061.69 266.18 1061.69 277.03 1052.23 282.45 1042.9 287.88 1042.9 298.6 1042.9 298.6 1042.9 309.44 1042.9 320.29 1042.9 331.14 1042.9 341.86 1052.23 347.28 1052.23 336.43 1052.23 325.71 1061.69 331.14 1061.69 320.29 1052.23 314.87 1052.23 304.02 1061.69 298.6 1061.69 298.6 1071.02 293.17 1071.02 282.45 1080.36 277.03 1089.69 282.45 1089.82 282.45 1099.15 277.03 1099.15 287.88 1108.48 293.17 1108.48 304.02 1117.81 309.44 1117.81 320.29 1117.81 331.14 1108.48 336.43 1108.48 347.28 1099.15 352.7 1099.15 363.55 1089.69 368.97 1089.69 379.82 1089.69 390.54 1080.36 395.96 1089.69 401.39 1099.15 406.81 1108.48 401.39 1117.81 406.81 1127.15 401.39 1136.61 395.96 1145.94 390.54 1145.94 379.82 1155.27 374.4 1155.27 363.55 1155.27 352.7 1155.27 341.86"/>
    <polygon class="st32" points="743.11 136.41 752.57 141.83 761.9 136.41 771.24 141.83 780.7 136.41 780.7 136.41 790.03 130.98 799.36 125.56 808.69 130.98 808.69 120.14 818.15 125.56 818.15 114.71 818.15 103.99 818.15 103.99 827.49 98.57 836.82 93.15 846.15 87.72 855.61 82.3 846.15 76.88 846.15 66.16 836.82 60.73 827.49 55.31 818.15 60.73 808.69 66.16 799.36 60.73 790.03 55.31 780.7 49.89 771.24 44.46 761.9 49.89 752.57 44.46 743.11 49.89 733.78 44.46 724.45 49.89 715.11 55.31 705.65 60.73 705.65 82.3 705.65 93.15 715.11 98.57 715.11 109.29 724.45 114.71 724.45 125.56 733.78 130.98 743.11 136.41"/>
    <polygon class="st18" points="1089.69 379.82 1089.69 368.97 1080.36 374.4 1071.02 379.82 1061.69 385.12 1052.23 379.82 1042.9 374.4 1033.57 368.97 1024.23 363.55 1014.77 368.97 1005.44 374.4 996.11 379.82 996.11 379.82 986.78 385.12 977.32 390.54 967.98 395.96 958.65 401.39 967.98 406.81 977.32 401.39 996.11 390.54 1005.44 385.12 1024.23 374.4 1024.23 385.12 1033.57 390.54 1052.23 401.39 1061.69 406.81 1071.02 401.39 1080.36 395.96 1089.69 390.54 1089.69 379.82"/>
    <polygon class="st32" points="799.36 244.49 790.03 239.19 790.03 249.91 790.03 260.76 799.36 266.18 799.36 255.34 799.36 244.49"/>
    <polygon class="st25" points="977.32 390.54 986.78 385.12 996.11 379.82 996.11 379.82 1005.44 374.4 1014.77 368.97 1024.23 363.55 1033.57 368.97 1042.9 374.4 1052.23 379.82 1061.69 385.12 1071.02 379.82 1080.36 374.4 1089.69 368.97 1080.36 363.55 1071.02 358.13 1061.69 352.7 1052.23 347.28 1042.9 341.86 1033.57 336.43 1024.23 331.14 1024.23 320.29 1014.77 314.87 1014.77 314.87 1005.44 320.29 996.11 314.87 996.11 314.87 986.78 320.29 977.32 314.87 977.32 314.87 977.32 325.71 967.98 320.29 958.65 325.71 949.19 320.29 939.86 314.87 930.53 309.44 921.19 314.87 921.19 325.71 921.19 336.43 911.73 331.14 911.73 331.14 911.73 341.86 911.73 352.7 921.19 358.13 921.19 368.97 921.19 379.82 921.19 390.54 921.19 401.39 930.53 406.81 939.86 401.39 949.19 406.81 958.65 401.39 967.98 395.96 977.32 390.54"/>
    <polygon class="st32" points="846.15 314.87 846.15 325.71 855.61 331.14 864.94 336.43 864.94 325.71 855.61 320.29 846.15 314.87"/>
    <polygon class="st25" points="827.49 314.87 827.49 304.02 827.49 293.17 818.15 287.88 818.15 277.03 818.15 266.18 818.15 266.18 808.69 260.76 808.69 249.91 808.69 239.19 799.36 233.77 799.36 233.77 799.36 244.49 799.36 255.34 799.36 266.18 799.36 266.18 799.36 266.18 808.69 271.61 808.69 282.45 808.69 293.17 818.15 298.6 818.15 298.6 818.15 309.44 818.15 320.29 827.49 325.71 827.49 314.87"/>
    <polygon class="st17" points="1145.94 390.54 1155.27 385.12 1164.73 379.82 1164.73 368.97 1155.27 374.4 1145.94 379.82 1145.94 390.54"/>
    <polygon class="st32" points="864.94 358.13 855.61 352.7 846.15 347.28 836.82 341.86 827.49 336.43 827.49 347.28 836.82 352.7 846.15 358.13 855.61 363.55 864.94 368.97 874.28 374.4 883.74 379.82 883.74 368.97 874.28 363.55 864.94 358.13"/>
    <polygon class="st20" points="1136.61 266.18 1127.15 271.61 1136.61 277.03 1145.94 271.61 1155.27 266.18 1155.27 266.18 1145.94 260.76 1136.61 266.18 1136.61 266.18"/>
    <polygon class="st20" points="1136.61 287.88 1145.94 293.17 1155.27 287.88 1164.73 282.45 1155.27 277.03 1145.94 282.45 1136.61 287.88"/>
    <polygon class="st32" points="911.73 287.88 911.73 277.03 902.4 271.61 902.4 282.45 911.73 287.88"/>
    <polygon class="st23" points="1089.69 336.43 1080.36 341.86 1089.69 347.28 1089.82 347.28 1099.15 341.86 1108.48 336.43 1099.15 331.14 1089.69 336.43"/>
    <polygon class="st25" points="874.28 352.7 864.94 347.28 864.94 347.28 855.61 341.86 846.15 336.43 836.82 331.14 836.82 331.14 827.49 325.71 827.49 336.43 836.82 341.86 846.15 347.28 855.61 352.7 864.94 358.13 874.28 363.55 883.74 368.97 883.74 358.13 874.28 352.7"/>
    <polygon class="st25" points="902.4 185.09 902.4 174.24 893.07 168.82 893.07 179.67 902.4 185.09"/>
    <polygon class="st32" points="836.82 136.41 836.82 136.41 846.15 141.83 846.15 130.98 836.82 125.56 827.49 120.14 827.49 130.98 836.82 136.41 836.82 136.41"/>
    <polygon class="st21" points="874.28 222.92 883.74 228.35 883.74 217.5 883.74 217.5 893.07 222.92 893.07 212.08 893.07 201.36 893.07 201.36 893.07 190.51 893.07 179.67 883.74 174.24 883.74 163.4 874.28 158.1 864.94 152.68 864.94 152.68 864.94 163.4 864.94 174.24 874.28 179.67 874.28 190.51 874.28 201.36 874.28 201.36 864.94 195.94 864.94 206.66 874.28 212.08 874.28 222.92"/>
    <polygon class="st20" points="1164.73 304.02 1155.27 309.44 1164.73 314.87 1174.06 320.29 1174.06 309.44 1164.73 304.02"/>
    <polygon class="st32" points="874.28 201.36 874.28 190.51 874.28 179.67 864.94 174.24 864.94 185.09 864.94 195.94 874.28 201.36 874.28 201.36"/>
    <polygon class="st32" points="874.28 222.92 874.28 212.08 864.94 206.66 855.61 201.36 846.15 195.94 836.82 190.51 836.82 201.36 827.49 195.94 827.49 206.66 836.82 212.08 846.15 217.5 846.15 206.66 855.61 212.08 864.94 217.5 864.94 228.35 874.28 233.77 883.74 239.19 883.74 228.35 874.28 222.92"/>
    <polygon class="st32" points="874.28 158.1 883.74 163.4 883.74 152.68 874.28 147.25 864.94 141.83 864.94 152.68 864.94 152.68 874.28 158.1"/>
    <polygon class="st25" points="911.73 309.44 911.73 298.6 911.73 298.6 902.4 293.17 902.4 304.02 902.4 314.87 893.07 309.44 893.07 320.29 893.07 331.14 883.74 325.71 883.74 336.43 883.74 347.28 883.74 358.13 893.07 363.55 893.07 352.7 893.07 341.86 902.4 347.28 902.4 336.43 902.4 325.71 911.73 331.14 911.73 320.29 911.73 309.44"/>
    <polygon class="st32" points="827.49 185.09 818.15 179.67 818.15 190.51 827.49 195.94 827.49 185.09"/>
    <polygon class="st18" points="686.99 136.41 686.99 147.25 696.32 152.68 705.65 158.1 705.65 168.82 705.65 168.82 705.65 168.82 715.11 174.24 715.11 185.09 724.45 190.51 724.45 201.36 724.45 201.36 724.45 201.36 733.78 206.66 743.11 212.08 752.57 217.5 752.57 228.35 761.9 233.77 761.9 244.49 771.24 249.91 771.24 249.91 780.7 255.34 780.7 266.18 780.7 266.18 790.03 271.61 790.03 282.45 799.36 287.88 799.36 277.03 799.36 266.18 799.36 266.18 790.03 260.76 790.03 249.91 790.03 239.19 799.36 244.49 799.36 233.77 799.36 233.77 790.03 228.35 790.03 217.5 780.7 212.08 780.7 201.36 780.7 201.36 780.7 190.51 771.24 185.09 771.24 185.09 771.24 174.24 761.9 168.82 761.9 168.82 761.9 158.1 752.57 152.68 752.57 152.68 752.57 141.83 743.11 136.41 733.78 130.98 724.45 125.56 715.11 120.14 705.65 114.71 696.32 120.14 686.99 125.56 686.99 136.41 686.99 136.41"/>
    <polygon class="st4" points="799.36 385.12 799.36 374.4 799.36 363.55 799.36 352.7 799.36 341.86 799.36 331.14 799.36 320.29 799.36 309.44 799.36 298.6 799.36 298.6 799.36 287.88 790.03 282.45 790.03 293.17 790.03 304.02 790.03 314.87 790.03 325.71 790.03 336.43 790.03 347.28 790.03 358.13 790.03 368.97 790.03 390.54 790.03 401.39 799.36 406.81 799.36 395.96 799.36 385.12"/>
    <polygon class="st17" points="1136.61 277.03 1136.61 287.88 1145.94 282.45 1155.27 277.03 1155.27 266.18 1145.94 271.61 1136.61 277.03"/>
    <polygon class="st21" points="855.61 212.08 846.15 206.66 846.15 217.5 855.61 222.92 864.94 228.35 864.94 217.5 855.61 212.08"/>
    <polygon class="st25" points="902.4 206.66 902.4 217.5 902.4 228.35 893.07 222.92 893.07 233.77 893.07 233.77 902.4 239.19 911.73 244.49 911.73 233.77 911.73 233.77 911.73 222.92 911.73 212.08 911.73 201.36 911.73 201.36 911.73 190.51 902.4 185.09 902.4 195.94 902.4 206.66"/>
    <polygon class="st20" points="1108.48 249.91 1108.48 249.91 1117.81 255.34 1127.15 260.76 1136.61 255.34 1145.94 249.91 1136.61 244.49 1127.15 239.19 1117.81 233.77 1108.48 228.35 1099.15 233.77 1099.15 233.77 1089.69 239.19 1099.15 244.49 1108.48 249.91"/>
    <polygon class="st23" points="1071.02 347.28 1080.36 341.86 1071.02 336.43 1061.69 331.14 1061.69 331.14 1061.69 341.86 1071.02 347.28"/>
    <polygon class="st32" points="846.15 217.5 846.15 228.35 855.61 233.77 864.94 239.19 864.94 228.35 855.61 222.92 846.15 217.5"/>
    <polygon class="st32" points="827.49 228.35 827.49 217.5 818.15 212.08 818.15 222.92 827.49 228.35"/>
    <polygon class="st25" points="911.73 385.12 911.73 374.4 911.73 363.55 911.73 352.7 902.4 347.28 902.4 358.13 902.4 368.97 893.07 363.55 893.07 374.4 883.74 368.97 883.74 379.82 874.28 374.4 864.94 368.97 855.61 363.55 846.15 358.13 836.82 352.7 827.49 347.28 827.49 336.43 818.15 331.14 818.15 331.14 818.15 320.29 808.69 314.87 808.69 304.02 808.69 293.17 799.36 287.88 799.36 298.6 799.36 298.6 799.36 309.44 799.36 320.29 799.36 331.14 799.36 341.86 799.36 352.7 799.36 363.55 799.36 374.4 799.36 385.12 799.36 395.96 799.36 406.81 808.69 401.39 818.15 406.81 827.49 401.39 836.82 406.81 846.15 401.39 855.61 406.81 864.94 401.39 874.28 406.81 883.74 401.39 893.07 406.81 902.4 401.39 911.73 406.81 911.73 395.96 911.73 385.12"/>
    <polygon class="st18" points="827.49 98.57 818.15 103.99 827.49 109.29 827.49 98.57"/>
    <polygon class="st35" points="949.19 233.77 949.19 233.77 939.86 228.35 930.53 233.77 930.53 233.77 921.19 239.19 911.73 244.49 911.73 255.34 921.19 260.76 930.53 266.18 930.53 266.18 930.53 277.03 930.53 287.88 930.53 298.6 921.19 293.17 921.19 304.02 930.53 298.6 930.53 298.6 939.86 293.17 949.19 287.88 958.65 282.45 958.65 271.61 958.65 260.76 958.65 249.91 949.19 244.49 949.19 233.77"/>
    <polygon class="st25" points="790.03 325.71 790.03 314.87 790.03 304.02 790.03 293.17 790.03 282.45 790.03 271.61 780.7 266.18 780.7 266.18 780.7 255.34 771.24 249.91 771.24 249.91 761.9 244.49 761.9 233.77 752.57 228.35 752.57 217.5 743.11 212.08 733.78 206.66 724.45 201.36 724.45 201.36 724.45 212.08 724.45 222.92 724.45 233.77 724.45 233.77 724.45 244.49 733.78 249.91 733.78 260.76 743.11 266.18 743.11 277.03 752.57 282.45 752.57 293.17 761.9 298.6 761.9 309.44 771.24 314.87 771.24 325.71 780.7 331.14 780.7 341.86 790.03 347.28 790.03 336.43 790.03 325.71"/>
    <polygon class="st32" points="893.07 222.92 883.74 217.5 883.74 217.5 883.74 228.35 893.07 233.77 893.07 233.77 893.07 222.92"/>
    <polygon class="st25" points="818.15 125.56 808.69 120.14 808.69 130.98 818.15 136.41 818.15 125.56"/>
    <polygon class="st31" points="1071.02 358.13 1080.36 363.55 1089.69 368.97 1099.15 363.55 1099.15 352.7 1108.48 347.28 1108.48 336.43 1099.15 341.86 1089.82 347.28 1089.69 347.28 1080.36 341.86 1071.02 347.28 1061.69 341.86 1061.69 331.14 1052.23 325.71 1052.23 336.43 1052.23 347.28 1061.69 352.7 1071.02 358.13"/>
    <polygon class="st32" points="883.74 174.24 893.07 179.67 893.07 168.82 883.74 163.4 883.74 174.24"/>
    <polygon class="st17" points="1089.69 239.19 1080.36 233.77 1080.36 244.49 1089.69 239.19"/>
    <polygon class="st17" points="1155.27 309.44 1155.27 320.29 1155.27 331.14 1155.27 341.86 1155.27 352.7 1155.27 363.55 1155.27 363.55 1164.73 358.13 1174.06 352.7 1174.06 341.86 1174.06 320.29 1164.73 314.87 1155.27 309.44"/>
    <polygon class="st32" points="893.07 136.41 893.07 136.41 883.74 141.83 893.07 147.25 893.07 158.1 893.07 168.82 893.07 168.82 902.4 174.24 902.4 185.09 911.73 190.51 921.19 185.09 930.53 190.51 930.53 201.36 930.53 201.36 930.53 212.08 939.86 217.5 939.86 228.35 949.19 233.77 949.19 233.77 949.19 244.49 958.65 249.91 967.98 255.34 977.32 260.76 986.78 255.34 996.11 260.76 1005.44 255.34 1014.77 249.91 1014.77 249.91 1024.23 244.49 1033.57 239.19 1033.57 228.35 1033.57 217.5 1042.9 212.08 1042.9 190.51 1033.57 185.09 1024.23 179.67 1014.77 185.09 1014.77 185.09 1005.44 190.51 996.11 185.09 996.11 185.09 996.11 174.24 986.78 168.82 977.32 163.4 967.98 168.82 958.65 163.4 958.65 152.68 949.19 147.25 949.19 136.41 949.19 136.41 939.86 130.98 930.53 125.56 921.19 130.98 911.73 125.56 902.4 130.98 893.07 136.41"/>
    <polygon class="st32" points="893.07 190.51 893.07 201.36 893.07 201.36 893.07 212.08 893.07 222.92 902.4 228.35 902.4 217.5 902.4 206.66 902.4 195.94 902.4 185.09 893.07 179.67 893.07 190.51"/>
    <path class="st27" d="M874.28,320.29l-9.33-5.42h0l-9.33-5.42-9.33-5.42-9.33-5.42h0v10.85l-9.33-5.42v21.69l9.33,5.42h0l9.33,5.42,9.33,5.42,9.33,5.42h0l9.33,5.42,9.33,5.42v-21.57l-9.33-5.42v-10.85h0v-.13h0ZM864.94,336.43l-9.33-5.42-9.33-5.42v-10.85l9.33,5.42,9.33,5.42v10.85h0Z"/>
    <path class="st21" d="M808.69,239.19v10.85l9.33,5.42,9.33,5.42,9.33,5.42v-10.85l9.33,5.42v-10.85l9.33,5.42,9.33,5.42v10.85l9.33,5.42v10.85l9.33,5.42,9.33,5.42,9.33,5.42v-10.85l9.33,5.42h0l9.33,5.42v-10.85l9.33,5.42v-32.41h0l-9.33-5.42-9.33-5.42v10.85l-9.33-5.42v-10.85l9.33,5.42v-10.85l-9.33-5.42-9.33-5.42v10.85l-9.33-5.42-9.33-5.42-9.33-5.42v10.85l-9.33-5.42-9.33-5.42v-10.85l-9.33-5.42-9.33-5.42-9.33-5.42h0v-10.85l-9.33-5.42-9.33-5.42v10.85l9.33,5.42v10.85l-9.33-5.42h0v-10.85l-9.33-5.42-9.33-5.42v21.57h0v10.85l9.33,5.42v10.85l9.33,5.42h0l9.33,5.42h0ZM911.73,277.03v10.85l-9.33-5.42v-10.85l9.33,5.42h0ZM883.74,249.91l9.33,5.42v10.85h0l-9.33-5.42v-10.85h0ZM827.49,217.5v10.85l-9.33-5.42v-10.85l9.33,5.42ZM799.36,222.92v-10.85l9.33,5.42v10.85l-9.33-5.42h0Z"/>
    <polygon class="st18" points="911.73 201.36 911.73 212.08 911.73 222.92 911.73 233.77 911.73 233.77 911.73 244.49 921.19 239.19 930.53 233.77 930.53 233.77 939.86 228.35 939.86 217.5 930.53 212.08 930.53 201.36 930.53 201.36 930.53 190.51 921.19 185.09 911.73 190.51 911.73 201.36 911.73 201.36"/>
    <polygon class="st32" points="799.36 201.36 799.36 201.36 808.69 206.66 808.69 195.94 799.36 190.51 799.36 201.36 799.36 201.36"/>
    <polygon class="st32" points="808.69 217.5 799.36 212.08 799.36 222.92 808.69 228.35 808.69 217.5"/>
    <polygon class="st25" points="827.49 120.14 836.82 125.56 846.15 130.98 846.15 141.83 846.15 152.68 846.15 163.4 846.15 174.24 846.15 185.09 846.15 195.94 855.61 201.36 864.94 206.66 864.94 195.94 864.94 185.09 864.94 174.24 864.94 163.4 864.94 152.68 864.94 141.83 874.28 147.25 883.74 152.68 883.74 163.4 893.07 168.82 893.07 168.82 893.07 158.1 893.07 147.25 883.74 141.83 883.74 130.98 874.28 125.56 864.94 120.14 864.94 120.14 864.94 130.98 855.61 125.56 846.15 120.14 846.15 109.29 836.82 103.99 836.82 103.99 827.49 98.57 827.49 109.29 818.15 103.99 818.15 103.99 818.15 114.71 818.15 125.56 827.49 130.98 827.49 120.14"/>
    <polygon class="st4" points="921.19 379.82 921.19 368.97 921.19 358.13 911.73 352.7 911.73 363.55 911.73 374.4 911.73 385.12 911.73 395.96 911.73 406.81 921.19 401.39 921.19 390.54 921.19 379.82"/>
    <polygon class="st32" points="902.4 336.43 902.4 347.28 911.73 352.7 911.73 341.86 911.73 331.14 902.4 325.71 902.4 336.43"/>
    <polygon class="st32" points="911.73 320.29 911.73 331.14 911.73 331.14 921.19 336.43 921.19 325.71 921.19 314.87 911.73 309.44 911.73 320.29"/>
    <polygon class="st25" points="883.74 239.19 893.07 244.49 893.07 233.77 883.74 228.35 883.74 239.19"/>
    <polygon class="st25" points="818.15 190.51 818.15 201.36 818.15 201.36 818.15 201.36 827.49 206.66 827.49 195.94 818.15 190.51"/>
    <polygon class="st18" points="668.2 179.67 658.86 174.24 649.53 179.67 649.53 190.51 658.86 195.94 658.86 195.94 668.2 190.51 677.66 185.09 686.99 179.67 696.32 174.24 686.99 168.82 686.99 168.82 677.66 174.24 668.2 179.67"/>
    <polygon class="st32" points="818.15 320.29 818.15 331.14 818.15 331.14 827.49 336.43 827.49 325.71 818.15 320.29"/>
    <polygon class="st32" points="808.69 152.68 808.69 163.4 808.69 174.24 818.15 179.67 818.15 168.82 818.15 168.82 818.15 158.1 818.15 147.25 818.15 136.41 818.15 136.41 827.49 141.83 827.49 130.98 818.15 125.56 818.15 136.41 808.69 130.98 808.69 141.83 808.69 152.68"/>
    <polygon class="st31" points="1071.02 336.43 1080.36 341.86 1089.69 336.43 1099.15 331.14 1108.48 336.43 1117.81 331.14 1117.81 320.29 1117.81 309.44 1108.48 304.02 1108.48 293.17 1099.15 287.88 1099.15 277.03 1089.82 282.45 1089.69 282.45 1080.36 277.03 1071.02 282.45 1071.02 293.17 1061.69 298.6 1061.69 298.6 1052.23 304.02 1052.23 314.87 1061.69 320.29 1061.69 331.14 1061.69 331.14 1071.02 336.43"/>
    <polygon class="st32" points="808.69 271.61 799.36 266.18 799.36 266.18 799.36 277.03 799.36 287.88 808.69 293.17 808.69 282.45 808.69 271.61"/>
    <polygon class="st4" points="799.36 450.07 799.36 450.07 790.03 455.49 790.03 466.34 799.36 471.76 799.36 460.91 799.36 450.07"/>
    <polygon class="st4" points="921.19 542.01 921.19 531.16 921.19 520.32 921.19 509.6 921.19 498.75 921.19 487.9 921.19 477.06 921.19 466.34 921.19 455.49 921.19 444.64 921.19 433.8 921.19 423.08 921.19 412.23 921.19 401.39 911.73 406.81 911.73 417.65 911.73 428.37 911.73 428.5 911.73 439.22 911.73 450.07 911.73 460.91 911.73 471.76 911.73 482.48 911.73 493.33 911.73 504.17 911.73 514.89 911.73 525.74 911.73 536.59 911.73 547.43 921.19 552.86 921.19 542.01 921.19 542.01"/>
    <polygon class="st4" points="799.36 428.37 799.36 417.65 790.03 423.08 790.03 433.8 799.36 439.22 799.36 428.5 799.36 428.37"/>
    <polygon class="st25" points="911.73 525.74 911.73 514.89 911.73 504.17 911.73 493.33 911.73 482.48 911.73 471.76 911.73 460.91 911.73 450.07 911.73 439.22 911.73 428.5 911.73 428.37 911.73 417.65 911.73 406.81 902.4 401.39 893.07 406.81 883.74 401.39 874.28 406.81 864.94 401.39 855.61 406.81 846.15 401.39 836.82 406.81 827.49 401.39 818.15 406.81 808.69 401.39 799.36 406.81 799.36 417.65 799.36 428.37 799.36 428.5 799.36 439.22 799.36 450.07 799.36 450.07 799.36 450.07 799.36 460.91 799.36 471.76 799.36 482.48 808.69 487.9 818.15 482.48 818.15 471.76 810.46 467.22 818.15 471.76 818.15 482.48 827.49 487.9 827.49 498.75 836.82 504.17 846.15 509.6 855.61 514.89 864.94 520.32 883.74 531.16 893.07 536.59 911.73 547.43 911.73 536.59 911.73 525.74"/>
    <polygon class="st18" points="949.19 406.81 939.86 401.39 939.86 412.23 930.53 417.65 930.53 428.37 939.86 423.08 949.19 417.65 958.65 412.23 967.98 406.81 958.65 401.39 949.19 406.81"/>
    <polygon class="st25" points="921.19 423.08 930.53 428.5 930.53 428.37 930.53 417.65 939.86 412.23 939.86 401.39 930.53 406.81 921.19 401.39 921.19 412.23 921.19 423.08"/>
    <polygon class="st27" points="939.86 423.08 930.53 428.37 930.53 428.5 921.19 423.08 921.19 433.8 921.19 444.64 921.19 455.49 921.19 466.34 921.19 477.06 921.19 487.9 921.19 498.75 921.19 509.6 921.19 520.32 921.19 531.16 921.19 542.01 921.19 542.01 921.19 552.86 930.53 547.43 939.86 542.01 949.19 536.59 958.65 531.16 958.65 520.32 958.65 498.75 958.65 487.9 958.65 466.34 958.65 455.49 958.65 433.8 958.65 423.08 958.65 412.23 949.19 417.65 939.86 423.08"/>
    <polygon class="st18" points="649.53 179.67 640.2 185.09 640.2 185.09 649.53 190.51 649.53 179.67 649.53 179.67"/>
    <path class="st23" d="M640.2,185.09h0l9.33-5.42h0l9.33-5.42,9.33,5.42,9.33-5.42,9.33-5.42h0v-32.41h0v-10.85l-9.33-5.42-9.33-5.42v-21.69l-9.33-5.42h0v-10.85l-9.33-5.42-9.33-5.42-9.33-5.42-9.33-5.42h0l-9.33-5.42-9.33-5.42-9.33,5.42v10.85l-9.33,5.42v10.85l9.33,5.42v10.85l-9.33,5.42v75.67l9.33,5.42v10.85l9.33,5.42,18.67,10.85,9.33-5.42v10.85l9.33-5.42v-21.57h0v-.04ZM602.74,98.57h0v10.85h0v-10.85ZM630.74,147.25h0v10.85h0v-10.85ZM612.07,114.71h0v10.85h0v-10.85Z"/>
  </g>
  <polygon class="st0" points="804.66 789.71 804.66 849.24 539.93 692.34 539.93 632.82 804.66 789.71"/>
  <polygon class="st1" points="804.66 789.71 838.46 687.17 598.96 551.97 539.93 632.82 804.66 789.71"/>
  <line class="st2" x1="805.79" y1="788.45" x2="1157.67" y2="587.03"/>
  <polygon class="st1" points="1159.31 587.03 1128.28 522.59 838.46 687.17 804.66 789.71 1159.31 587.03"/>
  <polygon class="st0" points="804.66 848.48 1159.31 645.93 1159.31 587.03 804.66 789.71 804.66 848.48"/>
  <path class="st3" d="M598.7,641.01l-162.57,92.82c-8.7,4.92-19.3,4.92-27.87-.13l-54.23-31.91c-10.72-6.31-24.09-6.05-34.68.76l-73.53,47.42"/>
  <g>
    <g class="st28">
      <path class="st36" d="M15.52,735.73v-26.86c.13-16.9,11.22-33.8,33.42-46.66,44.65-25.98,117.42-25.85,162.32,0v26.86c-45.02-25.98-117.8-25.98-162.44,0-22.2,12.86-33.3,29.76-33.3,46.66Z"/>
      <path class="st21" d="M49.45,783.15c-22.58-12.99-33.93-30.27-33.8-47.3v-26.86c0,17.15,11.35,34.3,33.93,47.3.25.13.5.25.76.38v26.86c-.25-.13-.5-.25-.76-.38h-.13Z"/>
      <polygon class="st21" points="278.74 849.24 278.61 876.1 150.47 801.56 150.6 774.7 278.74 849.24"/>
      <polygon class="st8" points="275.33 849.36 275.33 876.35 149.46 803.58 149.46 776.72 275.33 849.36"/>
      <path class="st21" d="M50.08,783.53v-26.86c26.23,14.88,63.31,21.69,100.39,18.04v26.86c-37.08,3.53-74.28-3.15-100.52-18.04,0,0,.13,0,.13,0Z"/>
      <path class="st8" d="M13.51,735.98v-26.61c0,17.53,11.48,34.94,34.56,48.3,26.61,15.39,64.45,22.45,101.4,18.92v26.61c-37.08,3.41-74.92-3.66-101.53-18.92-23.08-13.24-34.56-30.77-34.56-48.3,0,0,.13,0,.13,0Z"/>
      <polygon class="st36" points="472.84 813.17 472.84 840.16 211.26 689.07 211.26 662.2 472.84 813.17"/>
      <path class="st36" d="M277.22,886.7v-26.86c0-3.66.63-7.31,1.64-10.97v26.86c-1.14,3.66-1.64,7.31-1.64,10.97Z"/>
      <path class="st36" d="M506.76,860.59v26.86c0-17.15-11.35-34.3-33.93-47.3v-26.86c22.7,12.99,33.93,30.27,33.93,47.3h0Z"/>
      <path class="st21" d="M473.34,934.12c-22.32,12.99-51.71,19.42-81.1,19.42v-26.86c29.39,0,58.77-6.43,81.1-19.42,22.2-12.86,33.3-29.76,33.3-46.66v26.86c-.13,16.9-11.22,33.8-33.42,46.66h.13,0Z"/>
      <path class="st21" d="M311.02,934.12c-21.82-12.61-33.93-29.76-33.8-47.42v-26.86c0,17.66,12.11,34.81,33.93,47.42,22.45,12.99,51.84,19.42,81.22,19.42v26.86c-29.39,0-58.77-6.43-81.35-19.42h0Z"/>
      <path class="st30" d="M472.84,813.17c44.9,25.98,45.15,68.1.5,93.96-44.65,25.85-117.42,25.98-162.32,0-26.23-15.13-38.34-36.83-32.29-58.02l-128.14-74.54c-37.33,3.66-74.92-3.28-101.15-18.41-44.9-25.98-45.15-68.1-.5-94.09,44.65-25.98,117.42-25.85,162.32,0l261.57,151.09h.01Z"/>
      <path class="st6" d="M509.28,860.97v26.61c-.13,17.28-11.48,34.43-34.05,47.55-45.4,26.49-119.69,26.49-165.47,0-22.2-12.86-34.56-30.39-34.56-48.3v-26.61c0,17.91,12.36,35.44,34.56,48.3,45.78,26.49,119.94,26.36,165.47,0,22.58-13.12,33.93-30.27,33.93-47.55h.13-.01Z"/>
      <path class="st36" d="M475.23,811.91c46.16,26.61,46.41,70,.5,96.73-45.91,26.61-120.82,26.74-166.98,0-26.74-15.51-39.22-37.58-33.42-59.15l-125.87-72.65c-37.33,3.41-75.55-3.66-102.28-19.17-46.16-26.74-46.41-70.12-.5-96.73,45.91-26.61,120.82-26.61,166.98,0l261.57,151.09v-.13h0ZM311.02,907.25c44.9,25.98,117.67,25.85,162.32,0,44.65-25.98,44.39-68.1-.5-93.96l-261.57-151.09c-44.9-25.98-117.67-25.98-162.32,0-44.65,25.98-44.39,68.1.5,94.09,26.23,15.13,63.69,22.07,100.27,18.54l129.15,74.03c-6.18,21.69,5.93,43.39,32.16,58.52"/>
    </g>
    <path class="st13" d="M460.98,819.98c38.09,22.07,38.34,57.76.5,79.83-37.96,22.07-99.63,22.07-137.72,0-38.21-22.07-38.34-57.76-.5-79.83,37.96-22.07,99.51-22.07,137.72,0h0Z"/>
    <path class="st11" d="M174.31,674.56c28.5,16.52,28.76,43.13.38,59.65-28.38,16.52-74.54,16.52-103.04,0s-28.76-43.13-.38-59.65c28.38-16.52,74.41-16.52,103.04,0h0Z"/>
    <g>
      <rect class="st14" x="347.22" y="821.87" width="67.1" height="32.03"/>
      <g>
        <path class="st9" d="M362.99,831.83c8.7,5.04,8.83,13.24,0,18.29-8.7,5.04-22.7,5.04-31.53,0s-8.83-13.24,0-18.29c8.7-5.04,22.7-5.04,31.53,0Z"/>
        <rect class="st9" x="325.02" y="834.73" width="44.52" height="7.06"/>
        <path class="st5" d="M362.99,825.65c8.7,5.04,8.83,13.24,0,18.29-8.7,5.04-22.7,5.04-31.53,0s-8.83-13.24,0-18.29c8.7-5.04,22.7-5.04,31.53,0Z"/>
      </g>
      <g>
        <path class="st9" d="M430.08,831.83c8.7,5.04,8.83,13.24,0,18.29-8.7,5.04-22.7,5.04-31.53,0s-8.83-13.24,0-18.29c8.7-5.04,22.7-5.04,31.53,0Z"/>
        <rect class="st9" x="392.12" y="834.73" width="44.52" height="7.06"/>
        <path class="st5" d="M430.08,825.65c8.7,5.04,8.83,13.24,0,18.29-8.7,5.04-22.7,5.04-31.53,0s-8.83-13.24,0-18.29c8.7-5.04,22.7-5.04,31.53,0Z"/>
      </g>
    </g>
    <g>
      <rect class="st14" x="373.08" y="862.35" width="67.1" height="32.03"/>
      <g>
        <path class="st9" d="M388.84,872.32c8.7,5.04,8.83,13.24,0,18.29s-22.7,5.04-31.53,0-8.83-13.24,0-18.29c8.7-5.04,22.7-5.04,31.53,0Z"/>
        <rect class="st9" x="350.88" y="875.34" width="44.52" height="7.06"/>
        <path class="st5" d="M388.84,866.14c8.7,5.04,8.83,13.24,0,18.29s-22.7,5.04-31.53,0-8.83-13.24,0-18.29c8.7-5.04,22.7-5.04,31.53,0Z"/>
      </g>
      <g>
        <path class="st9" d="M455.94,872.32c8.7,5.04,8.83,13.24,0,18.29-8.7,5.04-22.7,5.04-31.53,0s-8.83-13.24,0-18.29c8.7-5.04,22.7-5.04,31.53,0Z"/>
        <rect class="st9" x="417.97" y="875.34" width="44.52" height="7.06"/>
        <path class="st5" d="M455.94,866.14c8.7,5.04,8.83,13.24,0,18.29-8.7,5.04-22.7,5.04-31.53,0s-8.83-13.24,0-18.29c8.7-5.04,22.7-5.04,31.53,0Z"/>
      </g>
    </g>
    <path class="st7" d="M230.31,753.26c-1.77-1.26-4.04-1.89-6.43-2.02h-30.14c-2.14.13-4.29.76-6.05,2.02-3.78,2.77-3.66,7.19,0,9.84,1.64,1.26,3.78,1.89,6.05,2.02h30.14c2.4,0,4.67-.76,6.43-2.02,3.78-2.77,3.66-7.19,0-9.84h0Z"/>
    <path class="st7" d="M272.18,774.7c-1.77-1.26-4.04-1.89-6.43-2.02h-30.14c-2.14.13-4.29.76-6.05,2.02-3.78,2.77-3.66,7.19,0,9.84,1.64,1.26,3.78,1.89,6.05,2.02h30.14c2.4,0,4.67-.76,6.43-2.02,3.78-2.77,3.78-7.19,0-9.84h0Z"/>
    <g>
      <polygon class="st16" points="145.05 706.97 171.79 691.46 149.72 678.6 122.85 694.24 95.86 678.6 73.92 691.46 100.91 706.97 74.17 722.61 96.24 735.35 122.98 719.71 149.97 735.35 171.91 722.61 145.05 706.97"/>
      <path class="st16" d="M149.97,725.77l21.94-12.74-26.99-15.51,26.74-15.51-22.07-12.74-26.74,15.51-26.99-15.51-21.94,12.74,26.99,15.51-26.86,15.51,16.77,9.71,5.3,3.15,26.86-15.51,26.99,15.51h0v-.13h0ZM151.86,714.16l5.8-3.41v6.68h-11.48l5.8-3.41h0l-.13.13h0ZM157.41,677.46v6.68l-5.8-3.41-5.8-3.41h11.6v.13h0ZM94.1,680.87l-5.8,3.41v-6.68h11.48l-5.8,3.41h0l.13-.13h0ZM88.55,717.44v-6.68l5.8,3.41,5.8,3.41h-11.6v-.13h0ZM115.16,702.06c-4.29-2.52-4.29-6.56,0-9.08s11.22-2.52,15.64,0c4.29,2.52,4.29,6.56,0,9.08s-11.22,2.52-15.64,0h0Z"/>
      <path class="st26" d="M130.8,692.97c-4.29-2.52-11.35-2.52-15.64,0s-4.29,6.56,0,9.08,11.35,2.52,15.64,0c4.29-2.52,4.29-6.56,0-9.08h0Z"/>
      <polygon class="st26" points="157.41 684.15 157.41 677.46 145.81 677.46 151.61 680.87 157.41 684.15"/>
      <polygon class="st26" points="88.55 710.76 88.55 717.44 100.15 717.44 94.35 714.16 88.55 710.76"/>
      <polygon class="st26" points="88.42 684.15 94.1 680.87 99.9 677.46 88.3 677.46 88.42 684.15"/>
      <polygon class="st26" points="157.54 710.76 151.86 714.16 146.06 717.44 157.66 717.44 157.54 710.76"/>
      <polygon class="st29" points="171.79 681.88 171.79 691.46 153.25 702.18 145.05 697.52 171.79 681.88"/>
      <polygon class="st29" points="172.04 713.03 172.04 722.61 149.97 735.35 149.97 725.77 172.04 713.03"/>
      <polygon class="st29" points="96.24 725.77 96.24 735.35 122.98 719.71 122.98 710.25 96.24 725.77"/>
      <polygon class="st29" points="74.17 713.03 74.17 722.61 96.24 735.35 96.24 725.77 74.17 713.03"/>
      <polygon class="st29" points="73.92 681.88 73.92 691.46 92.71 702.31 100.91 697.52 73.92 681.88"/>
      <polygon class="st29" points="122.98 710.25 122.98 719.71 149.97 735.35 149.97 725.77 122.98 710.25"/>
    </g>
    <line class="st15" x1="265.75" y1="716.69" x2="330.45" y2="754.02"/>
    <line class="st15" x1="257.17" y1="725.26" x2="321.87" y2="762.59"/>
  </g>
  <g>
    <polygon class="st33" points="845.52 585.02 780.95 622.6 706.92 580.35 771.49 542.89 845.52 585.02"/>
    <polygon class="st33" points="706.92 580.35 706.92 570.89 845.52 575.56 845.52 585.02 706.92 580.35"/>
    <polygon class="st19" points="845.52 575.56 780.95 613.14 706.92 570.89 771.49 533.43 845.52 575.56"/>
  </g>
  <rect class="st10" x="438.53" y="154.19" width="21.69" height="22.2"/>
  <rect class="st10" x="505.63" y="279.55" width="21.69" height="22.2"/>
  <rect class="st32" x="460.22" y="131.99" width="21.69" height="22.2"/>
  <rect class="st12" x="482.93" y="279.55" width="21.69" height="22.2"/>
  <rect class="st10" x="438.53" y="108.79" width="21.69" height="22.2"/>
  <rect class="st10" x="257.8" y="313.1" width="21.69" height="22.2"/>
  <rect class="st32" x="279.62" y="290.9" width="21.69" height="22.2"/>
  <rect class="st10" x="301.31" y="268.2" width="21.69" height="22.2"/>
</svg>